<svg xmlns="http://www.w3.org/2000/svg" viewBox="0 0 940 844" role="img" aria-label="VECELL">
  <g fill="#050505">
    <circle cx="219" cy="149" r="17" />
    <circle cx="291" cy="149" r="17" />
    <circle cx="621" cy="149" r="17" />
    <circle cx="693" cy="151" r="17" />
    <circle cx="255" cy="219" r="17" />
    <circle cx="330" cy="219" r="17" />
    <circle cx="582" cy="219" r="17" />
    <circle cx="657" cy="219" r="17" />
    <circle cx="293" cy="288" r="17" />
    <circle cx="368" cy="288" r="17" />
    <circle cx="538" cy="288" r="17" />
    <circle cx="615" cy="288" r="17" />
    <circle cx="333" cy="358" r="17" />
    <circle cx="413" cy="358" r="17" />
    <circle cx="497" cy="358" r="17" />
    <circle cx="575" cy="358" r="17" />
    <circle cx="374" cy="436" r="17" />
    <circle cx="454" cy="436" r="17" />
    <circle cx="532" cy="436" r="17" />
    <circle cx="413" cy="506" r="17" />
    <circle cx="493" cy="506" r="17" />
  </g>
  <g fill="#050505">
    <path d="M145.49 745 173.43 666.46H162.54L139.88 734.55H139.66L117.22 666.46H106L133.61 745Z" />
    <path d="M246.79 666.46V745H301.35V736.2H257.24V709.03H298.05V700.23H257.24V675.26H301.02V666.46Z" />
    <path d="M434.22 690.11H444.67Q443.79 683.84 440.93 679.06Q438.07 674.27 433.78 671.08Q429.49 667.89 423.99 666.24Q418.49 664.59 412.33 664.59Q403.31 664.59 396.32 667.84Q389.34 671.08 384.66 676.69Q379.99 682.3 377.57 689.84Q375.15 697.37 375.15 705.95Q375.15 714.53 377.4 722.01Q379.66 729.49 384.17 734.99Q388.68 740.49 395.5 743.62Q402.32 746.76 411.45 746.76Q426.52 746.76 435.21 738.51Q443.9 730.26 445.44 715.41H434.99Q434.66 720.25 433.01 724.43Q431.36 728.61 428.44 731.63Q425.53 734.66 421.51 736.37Q417.5 738.07 412.33 738.07Q405.29 738.07 400.23 735.43Q395.17 732.79 391.92 728.34Q388.68 723.88 387.14 717.88Q385.6 711.89 385.6 705.18Q385.6 699.02 387.14 693.3Q388.68 687.58 391.92 683.12Q395.17 678.67 400.17 676.03Q405.18 673.39 412.22 673.39Q420.47 673.39 426.46 677.57Q432.46 681.75 434.22 690.11Z" />
    <path d="M523.42 666.46V745H577.98V736.2H533.87V709.03H574.68V700.23H533.87V675.26H577.65V666.46Z" />
    <path d="M655.63 666.46V745H707.66V736.2H666.08V666.46Z" />
    <path d="M781.79 666.46V745H833.82V736.2H792.24V666.46Z" />
  </g>
</svg>
