<svg xmlns="http://www.w3.org/2000/svg" viewBox="0 0 540 430" role="img" aria-label="VECELL logo mark">
  <g fill="#050505">
    <circle cx="33" cy="41" r="17" />
    <circle cx="105" cy="41" r="17" />
    <circle cx="435" cy="41" r="17" />
    <circle cx="507" cy="43" r="17" />
    <circle cx="69" cy="111" r="17" />
    <circle cx="144" cy="111" r="17" />
    <circle cx="396" cy="111" r="17" />
    <circle cx="471" cy="111" r="17" />
    <circle cx="107" cy="180" r="17" />
    <circle cx="182" cy="180" r="17" />
    <circle cx="352" cy="180" r="17" />
    <circle cx="429" cy="180" r="17" />
    <circle cx="147" cy="250" r="17" />
    <circle cx="227" cy="250" r="17" />
    <circle cx="311" cy="250" r="17" />
    <circle cx="389" cy="250" r="17" />
    <circle cx="188" cy="328" r="17" />
    <circle cx="268" cy="328" r="17" />
    <circle cx="346" cy="328" r="17" />
    <circle cx="227" cy="398" r="17" />
    <circle cx="307" cy="398" r="17" />
  </g>
</svg>
